# xmcd
#
# Track frame offsets: 
#        150
#        12820
#        36187
#        50967
#        66616
#        80965
#        99628
#        120275
#        135697
#        153024
#        168562
#        182832
#        201988
#
# Disc length: 2829 seconds
#
# Revision: 0
# Processed by: cddbd v1.5.2PL0 Copyright (c) Steve Scherf et al.
# Submitted via: ExactAudioCopyFreeDBPlugin 1.0
#
DISCID=ba0b0b0d
DTITLE=Li'l Ronnie And The Grand Dukes - Too Fast For Conditions
DYEAR=1998
DGENRE=Blues
TTITLE0=Cross Eyed Suzie Lee
TTITLE1=Too Fast For Conditions
TTITLE2=I Found My Baby
TTITLE3=Bettin' On My Baby
TTITLE4=The Spin
TTITLE5=Love Life
TTITLE6=Blame It On Me
TTITLE7=Roll Roll Roll
TTITLE8=T-Bone Part 1
TTITLE9=Lonely Man
TTITLE10=My Aching Head
TTITLE11=I Wasted Too Much Time
TTITLE12=Don't Get Around Much Anymore
EXTD=
EXTT0=
EXTT1=
EXTT2=
EXTT3=
EXTT4=
EXTT5=
EXTT6=
EXTT7=
EXTT8=
EXTT9=
EXTT10=
EXTT11=
EXTT12=
PLAYORDER=
